<!DOCTYPE svg PUBLIC "-//W3C//DTD SVG 1.1//EN" "http://www.w3.org/Graphics/SVG/1.1/DTD/svg11.dtd">
<!-- Uploaded to: SVG Repo, www.svgrepo.com, Transformed by: SVG Repo Mixer Tools -->
<svg fill="#C38154" height="800px" width="800px" version="1.1" id="Layer_1" xmlns="http://www.w3.org/2000/svg" xmlns:xlink="http://www.w3.org/1999/xlink" viewBox="0 0 512 512" xml:space="preserve">
<g id="SVGRepo_bgCarrier" stroke-width="0"/>
<g id="SVGRepo_tracerCarrier" stroke-linecap="round" stroke-linejoin="round"/>
<g id="SVGRepo_iconCarrier"> <g> <g> <path d="M438.834,34.234C416.796,12.19,387.448,0.049,356.198,0.049s-60.597,12.141-82.636,34.179 c-18.067,18.066-29.476,41.04-33.006,65.946h-68.01V50.087C172.546,22.468,150.078,0,122.459,0H55.677 c-9.223,0-16.696,7.473-16.696,16.696c0,9.223,7.473,16.696,16.696,16.696h66.783c9.206,0,16.696,7.49,16.696,16.696v50.087 H89.068c-4.685,0-9.153,1.968-12.315,5.418c-3.163,3.456-4.728,8.082-4.315,12.744l25.896,293.49h248.599l15.733-178.311 c28.584-1.556,55.67-13.502,76.168-34.01c22.044-22.038,34.185-51.386,34.185-82.636S460.878,56.272,438.834,34.234z M286.551,70.831l29.343,29.343h-41.465C276.541,89.673,280.645,79.742,286.551,70.831z M178.111,322.783 c-9.22,0-16.696-7.475-16.696-16.696s7.475-16.696,16.696-16.696s16.696,7.475,16.696,16.696S187.332,322.783,178.111,322.783z M267.155,378.435c-9.22,0-16.696-7.475-16.696-16.696s7.475-16.696,16.696-16.696c9.22,0,16.696,7.475,16.696,16.696 S276.375,378.435,267.155,378.435z M330.289,220.548c-12.806,0.508-25.528,3.545-37.21,9.386 c-28.741,14.379-51.187-0.493-62.318-4.393c-20.171-7.143-42.739-7.155-64.184,1.371c-9.943,3.971-27.475,13.978-50.473,6.402 l-8.802-99.75h230.663L330.289,220.548z M356.198,93.261L310.16,47.222c13.526-8.964,29.402-13.782,46.039-13.782 s32.513,4.817,46.039,13.782L356.198,93.261z M365.641,199.794l4.044-45.828l32.548,32.548 C391.267,193.775,378.743,198.329,365.641,199.794z M425.845,162.907l-46.038-46.038l46.039-46.039 c8.964,13.526,13.782,29.402,13.782,46.039S434.81,149.382,425.845,162.907z"/> </g> </g> <g> <g> <path d="M101.28,445.217l4.549,51.554c0.761,8.619,7.978,15.229,16.63,15.229h200.348c8.652,0,15.87-6.609,16.63-15.229 l4.549-51.554H101.28z"/> </g> </g> </g>
</svg>